<?xml version="1.0" standalone="no"?>
<!DOCTYPE svg PUBLIC "-//W3C//DTD SVG 20010904//EN"
 "http://www.w3.org/TR/2001/REC-SVG-20010904/DTD/svg10.dtd">
<svg version="1.0" xmlns="http://www.w3.org/2000/svg"
 width="1024.000000pt" height="1024.000000pt" viewBox="0 0 1024.000000 1024.000000"
 preserveAspectRatio="xMidYMid meet">

<g transform="translate(0.000000,1024.000000) scale(0.100000,-0.100000)"
fill="#2c3e50" stroke="none">
<path d="M4615 7274 c-190 -19 -259 -29 -385 -54 -421 -84 -840 -267 -1265
-554 -110 -74 -203 -143 -629 -465 -366 -276 -617 -403 -902 -457 l-91 -17
-49 23 c-37 18 -67 24 -119 24 -61 0 -78 -4 -125 -30 -62 -35 -114 -96 -130
-152 -56 -203 131 -387 334 -328 44 13 70 29 110 69 29 29 57 59 62 68 6 10
47 23 124 38 249 49 521 161 772 319 70 44 245 165 390 269 303 219 440 310
626 417 422 242 775 364 1189 412 179 21 475 14 649 -15 640 -108 1241 -440
1878 -1037 200 -188 323 -300 359 -325 37 -28 36 -12 -9 109 -100 267 -258
510 -489 751 -484 505 -1110 827 -1780 916 -116 16 -439 27 -520 19z"/>
<path d="M4435 6289 c-170 -77 -404 -181 -520 -232 -115 -50 -217 -99 -226
-108 -13 -13 -17 -49 -23 -195 -30 -771 219 -1293 794 -1667 152 -99 287 -167
329 -167 75 0 361 165 549 317 330 267 517 641 563 1128 12 126 7 545 -6 579
-10 23 -43 38 -629 285 -262 111 -487 201 -499 200 -12 0 -161 -63 -332 -140z
m743 -273 c213 -90 413 -175 445 -189 l57 -26 0 -186 c0 -280 -26 -467 -92
-654 -105 -300 -355 -564 -721 -761 l-77 -42 -83 48 c-321 184 -545 402 -667
649 -102 207 -157 509 -148 824 l3 114 80 36 c44 19 238 106 430 193 193 86
358 157 368 158 10 0 192 -74 405 -164z"/>
<path d="M8795 5997 c-125 -42 -210 -142 -222 -263 -4 -41 -10 -54 -22 -54 -9
0 -83 -23 -166 -50 -340 -115 -673 -317 -1065 -649 -69 -58 -269 -247 -445
-421 -176 -173 -369 -355 -430 -404 -384 -308 -761 -473 -1260 -553 -170 -27
-572 -24 -762 5 -796 124 -1459 507 -2452 1416 -33 31 -33 31 -26 6 3 -14 33
-79 65 -145 110 -226 259 -425 505 -671 184 -184 320 -296 525 -433 320 -213
727 -383 1110 -465 255 -54 325 -61 645 -61 283 0 309 2 457 28 357 63 692
185 957 347 l84 51 91 -31 c195 -67 415 -190 583 -325 66 -52 72 -60 65 -84
-17 -61 -6 -148 27 -215 59 -119 165 -182 296 -174 266 17 389 327 210 526
-73 81 -185 116 -294 93 l-53 -11 -60 55 c-124 112 -341 236 -535 307 -51 18
-93 35 -93 38 0 9 344 194 441 237 123 53 293 105 424 129 137 24 441 25 575
0 205 -37 458 -116 467 -145 13 -47 57 -125 87 -159 19 -21 61 -51 93 -68 77
-39 190 -41 268 -6 65 30 138 102 167 166 34 77 32 192 -5 268 -30 62 -83 115
-149 150 -36 19 -58 23 -133 23 -101 0 -143 -16 -214 -81 l-39 -34 -93 31
c-451 147 -903 161 -1267 39 l-85 -28 49 50 c75 77 360 338 449 413 344 287
687 484 1017 585 l67 21 43 -31 c87 -63 220 -77 321 -32 59 26 132 100 160
160 31 67 31 198 0 264 -31 68 -104 142 -166 168 -63 27 -157 35 -212 17z"/>
</g>
</svg>
